<?xml version="1.0" encoding="iso-8859-1"?>
<!-- Generator: Adobe Illustrator 19.0.0, SVG Export Plug-In . SVG Version: 6.00 Build 0)  -->
<svg version="1.1" id="Capa_1" xmlns="http://www.w3.org/2000/svg" xmlns:xlink="http://www.w3.org/1999/xlink" x="0px" y="0px"
	 viewBox="0 0 512 512" style="enable-background:new 0 0 512 512;" xml:space="preserve">
<rect x="55.5" y="86" style="fill:#F1EBE0;" width="449" height="50"/>
<rect x="474.5" y="86" style="fill:#E8E1D7;" width="30" height="50"/>
<rect x="55.5" y="136" style="fill:#7A666C;" width="449" height="340"/>
<rect x="474.5" y="136" style="fill:#6A545A;" width="30" height="340"/>
<rect x="7.5" y="36" style="fill:#7A666C;" width="449" height="50"/>
<rect x="426.5" y="36" style="fill:#6A545A;" width="30" height="50"/>
<rect x="7.5" y="86" style="fill:#FF993B;" width="449" height="340"/>
<rect x="426.5" y="86" style="fill:#FF7B48;" width="30" height="340"/>
<rect x="7.5" y="36" style="fill:#FF5A51;" width="112" height="50"/>
<path style="fill:#FFD681;" d="M127,372.667v-20c0-11.046,8.954-20,20-20h160c11.046,0,20,8.954,20,20v20c0,11.046-8.954,20-20,20
	H147C135.954,392.667,127,383.712,127,372.667z"/>
<path d="M504.5,78.5H464V36c0-4.142-3.357-7.5-7.5-7.5H7.5l0,0C3.358,28.5,0,31.858,0,36v50v272.667c0,4.142,3.358,7.5,7.5,7.5
	s7.5-3.358,7.5-7.5V93.5l0,0h434l0,0v73.083c0,4.142,3.357,7.5,7.5,7.5s7.5-3.358,7.5-7.5V143.5h33v325h-49.5
	c-4.143,0-7.5,3.358-7.5,7.5s3.357,7.5,7.5,7.5h57c4.143,0,7.5-3.358,7.5-7.5V86l0,0C512,81.858,508.643,78.5,504.5,78.5z M112,78.5
	H15v-35h97V78.5L112,78.5z M127,78.5v-35h322v35H127z M464,128.5v-35h33v35H464z"/>
<path d="M416.042,468.5H63v-35h393.5c4.143,0,7.5-3.358,7.5-7.5V199c0-4.142-3.357-7.5-7.5-7.5s-7.5,3.358-7.5,7.5v219.5H15V391
	c0-4.142-3.358-7.5-7.5-7.5S0,386.858,0,391v35c0,4.142,3.358,7.5,7.5,7.5H48V476c0,4.142,3.358,7.5,7.5,7.5h360.542
	c4.143,0,7.5-3.358,7.5-7.5S420.185,468.5,416.042,468.5z"/>
<path d="M119.5,352.667v20c0,15.164,12.336,27.5,27.5,27.5h160c15.163,0,27.5-12.336,27.5-27.5v-20c0-15.164-12.337-27.5-27.5-27.5
	H147C131.836,325.167,119.5,337.503,119.5,352.667z M319.5,352.667v20c0,6.893-5.607,12.5-12.5,12.5H147
	c-6.893,0-12.5-5.607-12.5-12.5v-20c0-6.893,5.607-12.5,12.5-12.5h160C313.893,340.167,319.5,345.774,319.5,352.667z"/>
<circle cx="36.5" cy="61" r="7.5"/>
<circle cx="92.5" cy="61" r="7.5"/>
<circle cx="64.5" cy="61" r="7.5"/>
<path d="M132.244,146.544c-1.064-2.979-3.883-4.971-7.047-4.978c-0.005,0-0.01,0-0.016,0c-3.157,0-5.978,1.978-7.052,4.948
	c-0.118,0.326-11.919,32.936-23.571,65.345c-23.999,66.752-24.003,67.306-24.019,69.142c-0.037,4.142,3.292,7.529,7.434,7.565
	c0.022,0,0.044,0,0.067,0c3.603,0,6.622-2.546,7.338-5.948c0.804-2.715,6.424-18.597,13.993-39.754h51.346l14.544,40.724
	c1.095,3.067,3.983,4.979,7.063,4.979c0.837,0,1.689-0.141,2.522-0.439c3.901-1.393,5.934-5.685,4.541-9.585L132.244,146.544z
	 M104.746,227.865c6.457-17.994,13.704-38.104,20.392-56.621l20.222,56.621H104.746z"/>
<path d="M198.039,288.567c40.528,0,73.5-32.972,73.5-73.5s-32.972-73.5-73.5-73.5h-2.572c-4.142,0-7.5,3.358-7.5,7.5v132
	c0,4.142,3.358,7.5,7.5,7.5H198.039z M202.967,156.772c29.959,2.511,53.571,27.697,53.571,58.294s-23.612,55.784-53.571,58.294
	V156.772z"/>
<path d="M291.467,239.281c-4.143,0-7.5,3.358-7.5,7.5v4.714c0,20.441,16.63,37.072,37.071,37.072h9.429
	c20.441,0,37.071-16.63,37.071-37.072v-15.816c0-16.919-13.765-30.684-30.684-30.684h-15.816c-12.17,0-22.071-9.901-22.071-22.071
	v-4.286c0-12.17,9.901-22.071,22.071-22.071h9.429c12.17,0,22.071,9.901,22.071,22.071c0,4.142,3.357,7.5,7.5,7.5s7.5-3.358,7.5-7.5
	c0-20.441-16.63-37.071-37.071-37.071h-9.429c-20.441,0-37.071,16.63-37.071,37.071v4.286c0,20.441,16.63,37.071,37.071,37.071
	h15.816c8.648,0,15.684,7.036,15.684,15.684v15.816c0,12.17-9.901,22.072-22.071,22.072h-9.429c-12.17,0-22.071-9.901-22.071-22.072
	v-4.714C298.967,242.639,295.609,239.281,291.467,239.281z"/>
<g>
</g>
<g>
</g>
<g>
</g>
<g>
</g>
<g>
</g>
<g>
</g>
<g>
</g>
<g>
</g>
<g>
</g>
<g>
</g>
<g>
</g>
<g>
</g>
<g>
</g>
<g>
</g>
<g>
</g>
</svg>
