<?xml version="1.0" encoding="iso-8859-1"?>
<!-- Generator: Adobe Illustrator 19.0.0, SVG Export Plug-In . SVG Version: 6.00 Build 0)  -->
<svg version="1.1" id="Capa_1" xmlns="http://www.w3.org/2000/svg" xmlns:xlink="http://www.w3.org/1999/xlink" x="0px" y="0px"
	 viewBox="0 0 512 512" style="enable-background:new 0 0 512 512;" xml:space="preserve">
<path style="fill:#E0230D;" d="M253.163,182.501c-2.69,0-5.34,0.12-7.96,0.36l-71.7,321.64c77.69-61.38,166-148.15,166-235.65
	C339.503,221.161,300.853,182.501,253.163,182.501z"/>
<path style="fill:#FF5440;" d="M245.203,182.864c36.05,3.96,64.3,40.95,64.3,85.99c0,87.5-72.35,174.27-136,235.65
	c-77.69-61.38-166-148.15-166-235.65c0-47.69,38.65-86.35,86.34-86.35c35.86,0,66.61,21.87,79.66,52.99
	C185.573,206.704,212.793,185.833,245.203,182.864z"/>
<path style="fill:#E0230D;" d="M443.91,7.501c-2.81,0-5.57,0.19-8.28,0.56L388,233.501c54.52-43.08,116.5-103.98,116.5-165.4
	C504.5,34.631,477.37,7.501,443.91,7.501z"/>
<path style="fill:#FF5440;" d="M435.63,8.061c21.96,4.02,38.87,29.37,38.87,60.04c0,61.42-46.02,122.32-86.5,165.4
	c-54.52-43.08-116.5-103.98-116.5-165.4c0-33.47,27.13-60.6,60.59-60.6c25.17,0,46.75,15.35,55.91,37.19
	C396.14,25.291,414.08,11.011,435.63,8.061z"/>
<path d="M253.164,175.001c-32.835,0-62.714,16.944-79.661,44.191c-16.948-27.247-46.827-44.191-79.661-44.191
	C42.098,175.001,0,217.1,0,268.846c0,39.613,17.356,82.425,51.586,127.245c2.514,3.291,7.221,3.923,10.513,1.408
	c3.292-2.514,3.923-7.221,1.409-10.513C31.32,344.841,15,305.094,15,268.846c0-43.475,35.368-78.845,78.842-78.845
	c31.868,0,60.422,18.995,72.744,48.392c1.168,2.787,3.896,4.601,6.917,4.601c3.022,0,5.749-1.814,6.917-4.601
	c12.321-29.397,40.875-48.392,72.744-48.392c43.474,0,78.842,35.37,78.842,78.845c0,65.974-53.318,142.015-158.503,226.075
	c-36.667-29.306-67.339-57.914-91.224-85.09c-2.735-3.112-7.474-3.417-10.585-0.682c-3.111,2.734-3.417,7.473-0.683,10.584
	c25.485,28.996,58.403,59.496,97.842,90.652c1.363,1.077,3.006,1.615,4.649,1.615s3.286-0.538,4.649-1.615
	c47.868-37.817,86.014-74.581,113.375-109.271c36.813-46.673,55.479-91.174,55.479-132.268
	C347.006,217.1,304.908,175.001,253.164,175.001z"/>
<path d="M443.906,0.001c-22.644,0-43.35,11.106-55.906,29.183c-12.556-18.077-33.262-29.183-55.906-29.183
	C294.547,0.001,264,30.552,264,68.104c0,29.357,13.261,61.057,39.414,94.219c19.311,24.485,46.205,50.413,79.937,77.063
	c1.362,1.077,3.006,1.615,4.649,1.615s3.287-0.538,4.649-1.615c33.731-26.65,60.626-52.578,79.937-77.063
	C498.739,129.161,512,97.461,512,68.104C512,30.552,481.453,0.001,443.906,0.001z M388,223.911
	c-72.336-58.104-109-110.505-109-155.808c0-29.281,23.817-53.103,53.094-53.103c21.462,0,40.691,12.793,48.989,32.593
	c1.168,2.787,3.895,4.601,6.917,4.601s5.749-1.814,6.917-4.601c8.298-19.8,27.527-32.593,48.989-32.593
	c29.277,0,53.094,23.822,53.094,53.103C497,113.407,460.336,165.808,388,223.911z"/>
<g>
</g>
<g>
</g>
<g>
</g>
<g>
</g>
<g>
</g>
<g>
</g>
<g>
</g>
<g>
</g>
<g>
</g>
<g>
</g>
<g>
</g>
<g>
</g>
<g>
</g>
<g>
</g>
<g>
</g>
</svg>
