<svg xmlns="http://www.w3.org/2000/svg" viewBox="0 0 512 512"><path fill="#f1ebe0" d="M55.5 86h449v50h-449z"/><path fill="#e8e1d7" d="M474.5 86h30v50h-30z"/><path fill="#7a666c" d="M55.5 136h449v340h-449z"/><path fill="#6a545a" d="M474.5 136h30v340h-30z"/><path fill="#7a666c" d="M7.5 36h449v50H7.5z"/><path fill="#6a545a" d="M426.5 36h30v50h-30z"/><path fill="#ff993b" d="M7.5 86h449v340H7.5z"/><path fill="#ff7b48" d="M426.5 86h30v340h-30z"/><path fill="#ff5a51" d="M7.5 36h112v50H7.5z"/><path d="M127 372.667v-20c0-11.046 8.954-20 20-20h160c11.046 0 20 8.954 20 20v20c0 11.046-8.954 20-20 20H147c-11.046 0-20-8.955-20-20z" fill="#ffd681"/><path d="M504.5 78.5H464V36a7.5 7.5 0 00-7.5-7.5H7.5A7.5 7.5 0 000 36v322.667a7.5 7.5 0 0015 0V93.5h434v73.083c0 4.142 3.357 7.5 7.5 7.5s7.5-3.358 7.5-7.5V143.5h33v325h-49.5c-4.143 0-7.5 3.358-7.5 7.5s3.357 7.5 7.5 7.5h57a7.5 7.5 0 007.5-7.5V86a7.5 7.5 0 00-7.5-7.5zm-392.5 0H15v-35h97v35zm15 0v-35h322v35H127zm337 50v-35h33v35h-33z"/><path d="M416.042 468.5H63v-35h393.5a7.5 7.5 0 007.5-7.5V199c0-4.142-3.357-7.5-7.5-7.5s-7.5 3.358-7.5 7.5v219.5H15V391a7.5 7.5 0 00-15 0v35a7.5 7.5 0 007.5 7.5H48V476a7.5 7.5 0 007.5 7.5h360.542c4.143 0 7.5-3.358 7.5-7.5s-3.357-7.5-7.5-7.5z"/><path d="M119.5 352.667v20c0 15.164 12.336 27.5 27.5 27.5h160c15.163 0 27.5-12.336 27.5-27.5v-20c0-15.164-12.337-27.5-27.5-27.5H147c-15.164 0-27.5 12.336-27.5 27.5zm200 0v20c0 6.893-5.607 12.5-12.5 12.5H147c-6.893 0-12.5-5.607-12.5-12.5v-20c0-6.893 5.607-12.5 12.5-12.5h160c6.893 0 12.5 5.607 12.5 12.5z"/><circle cx="36.5" cy="61" r="7.5"/><circle cx="92.5" cy="61" r="7.5"/><circle cx="64.5" cy="61" r="7.5"/><path d="M132.244 146.544a7.501 7.501 0 00-7.047-4.978h-.016a7.5 7.5 0 00-7.052 4.948c-.118.326-11.919 32.936-23.571 65.345-23.999 66.752-24.003 67.306-24.019 69.142a7.499 7.499 0 007.434 7.565h.067a7.503 7.503 0 007.338-5.948c.804-2.715 6.424-18.597 13.993-39.754h51.346l14.544 40.724a7.503 7.503 0 007.063 4.979 7.5 7.5 0 007.063-10.024l-47.143-131.999zm-27.498 81.321a30090.051 30090.051 0 0120.392-56.621l20.222 56.621h-40.614zm93.293 60.702c40.528 0 73.5-32.972 73.5-73.5s-32.972-73.5-73.5-73.5h-2.572a7.5 7.5 0 00-7.5 7.5v132a7.5 7.5 0 007.5 7.5h2.572zm4.928-131.795c29.959 2.511 53.571 27.697 53.571 58.294s-23.612 55.784-53.571 58.294V156.772zm88.5 82.509a7.5 7.5 0 00-7.5 7.5v4.714c0 20.441 16.63 37.072 37.071 37.072h9.429c20.441 0 37.071-16.63 37.071-37.072v-15.816c0-16.919-13.765-30.684-30.684-30.684h-15.816c-12.17 0-22.071-9.901-22.071-22.071v-4.286c0-12.17 9.901-22.071 22.071-22.071h9.429c12.17 0 22.071 9.901 22.071 22.071 0 4.142 3.357 7.5 7.5 7.5s7.5-3.358 7.5-7.5c0-20.441-16.63-37.071-37.071-37.071h-9.429c-20.441 0-37.071 16.63-37.071 37.071v4.286c0 20.441 16.63 37.071 37.071 37.071h15.816c8.648 0 15.684 7.036 15.684 15.684v15.816c0 12.17-9.901 22.072-22.071 22.072h-9.429c-12.17 0-22.071-9.901-22.071-22.072v-4.714a7.5 7.5 0 00-7.5-7.5z"/></svg>