<svg xmlns="http://www.w3.org/2000/svg" viewBox="0 0 512 512"><path d="M253.163 182.501c-2.69 0-5.34.12-7.96.36l-71.7 321.64c77.69-61.38 166-148.15 166-235.65 0-47.69-38.65-86.35-86.34-86.35z" fill="#e0230d"/><path d="M245.203 182.864c36.05 3.96 64.3 40.95 64.3 85.99 0 87.5-72.35 174.27-136 235.65-77.69-61.38-166-148.15-166-235.65 0-47.69 38.65-86.35 86.34-86.35 35.86 0 66.61 21.87 79.66 52.99 12.07-28.79 39.29-49.661 71.7-52.63z" fill="#ff5440"/><path d="M443.91 7.501c-2.81 0-5.57.19-8.28.56L388 233.501c54.52-43.08 116.5-103.98 116.5-165.4 0-33.47-27.13-60.6-60.59-60.6z" fill="#e0230d"/><path d="M435.63 8.061c21.96 4.02 38.87 29.37 38.87 60.04 0 61.42-46.02 122.32-86.5 165.4-54.52-43.08-116.5-103.98-116.5-165.4 0-33.47 27.13-60.6 60.59-60.6 25.17 0 46.75 15.35 55.91 37.19 8.14-19.4 26.08-33.68 47.63-36.63z" fill="#ff5440"/><path d="M253.164 175.001c-32.835 0-62.714 16.944-79.661 44.191-16.948-27.247-46.827-44.191-79.661-44.191C42.098 175.001 0 217.1 0 268.846c0 39.613 17.356 82.425 51.586 127.245a7.5 7.5 0 0011.922-9.105C31.32 344.841 15 305.094 15 268.846c0-43.475 35.368-78.845 78.842-78.845 31.868 0 60.422 18.995 72.744 48.392a7.501 7.501 0 0013.834 0c12.321-29.397 40.875-48.392 72.744-48.392 43.474 0 78.842 35.37 78.842 78.845 0 65.974-53.318 142.015-158.503 226.075-36.667-29.306-67.339-57.914-91.224-85.09a7.5 7.5 0 00-10.585-.682 7.5 7.5 0 00-.683 10.584c25.485 28.996 58.403 59.496 97.842 90.652 1.363 1.077 3.006 1.615 4.649 1.615s3.286-.538 4.649-1.615c47.868-37.817 86.014-74.581 113.375-109.271 36.813-46.673 55.479-91.174 55.479-132.268.001-51.746-42.097-93.845-93.841-93.845zm190.742-175c-22.644 0-43.35 11.106-55.906 29.183C375.444 11.107 354.738.001 332.094.001 294.547.001 264 30.552 264 68.104c0 29.357 13.261 61.057 39.414 94.219 19.311 24.485 46.205 50.413 79.937 77.063 1.362 1.077 3.006 1.615 4.649 1.615s3.287-.538 4.649-1.615c33.731-26.65 60.626-52.578 79.937-77.063C498.739 129.161 512 97.461 512 68.104 512 30.552 481.453.001 443.906.001zM388 223.911c-72.336-58.104-109-110.505-109-155.808C279 38.822 302.817 15 332.094 15c21.462 0 40.691 12.793 48.989 32.593a7.5 7.5 0 0013.834 0C403.215 27.793 422.444 15 443.906 15 473.183 15 497 38.822 497 68.103c0 45.304-36.664 97.705-109 155.808z"/></svg>