<svg xmlns="http://www.w3.org/2000/svg" viewBox="0 0 512 512"><path fill="#f7ce4d" d="M344.778 54.831l159.616 71.779-33.059 88.778-69.889-13.222v255.003H110.553V202.166l-69.89 13.222L7.604 126.61l159.617-71.779z"/><path d="M167.221 54.831c0 42.387 39.752 76.756 88.779 76.756s88.779-34.369 88.779-76.756" fill="#e2b844"/><path d="M507.513 119.674L402.075 72.259a7.605 7.605 0 00-6.237 13.87l98.947 44.496-28.337 76.099-63.588-12.03a7.605 7.605 0 00-9.019 7.471v247.399H118.157V276.381a7.604 7.604 0 00-15.208 0V457.17a7.604 7.604 0 007.604 7.604h290.892c4.2 0 7.604-3.405 7.604-7.604V211.343l60.872 11.516a7.603 7.603 0 008.54-4.818l33.059-88.778a7.605 7.605 0 00-4.007-9.589z"/><path d="M102.949 251.035a7.604 7.604 0 0015.208 0v-48.868a7.602 7.602 0 00-9.019-7.471L45.55 206.725l-28.336-76.099 143.279-64.433c6.36 41.162 46.762 72.998 95.505 72.998s89.145-31.835 95.505-72.998l22.207 9.987a7.603 7.603 0 0010.053-3.816 7.604 7.604 0 00-3.816-10.054l-32.053-14.415a7.604 7.604 0 00-3.119-.669H167.221a7.607 7.607 0 00-3.119.669L4.487 119.674a7.603 7.603 0 00-4.007 9.589l33.058 88.778a7.602 7.602 0 008.54 4.818l60.872-11.516v39.692zM256 123.983c-41.742 0-76.214-26.984-80.673-61.548h161.347C332.214 97 297.742 123.983 256 123.983z"/></svg>