<svg height="512pt" viewBox="0 -96 512.002 512" width="512pt" xmlns="http://www.w3.org/2000/svg"><path d="M440.613 251.395c-1.34-48.622-21.586-92.868-53.918-125.208-34.437-34.43-81.02-53.996-130.36-53.996-47.827 0-94.92 18.555-130.358 53.996-34.516 34.52-52.649 79.618-53.918 125.215-.07 2.453-2.098 4.391-4.547 4.391h377.644c-2.453.004-4.476-1.945-4.543-4.398zm0 0" fill="#e4eaf8"/><path d="M159.977 128.27c31.273-32.48 71.625-51.293 113.543-55.274a185.874 185.874 0 00-17.184-.805c-47.828 0-94.922 18.555-130.36 53.996-34.511 34.52-52.648 79.618-53.917 125.215-.067 2.453-2.094 4.391-4.547 4.391h38.644c1.832-46.492 19.922-92.309 53.82-127.523zm0 0" fill="#d8dce5"/><path d="M432.09 80.777C385.363 34.062 322.453 7.97 256.336 7.97v67.597c48.434 0 94.156 19.207 127.96 53.004zm0 0" fill="#feca57"/><path d="M80.574 80.773l47.801 47.797c33.988-33.988 79.82-53.004 127.96-53.004V7.97c-62.612 0-123.491 22.402-175.76 72.804zm0 0" fill="#15ba8b"/><path d="M80.574 80.773l47.801 47.797c33.988-33.988 79.82-53.004 127.96-53.004V7.97c-62.612 0-123.491 22.402-175.76 72.804zm0 0" fill="#15ba8b"/><path d="M7.836 251.2c-.05 2.519 1.953 4.597 4.473 4.597h58.675c2.407 0 4.395-1.906 4.461-4.313 1.246-44.757 19.051-89.027 52.926-122.914L80.574 80.773C35.641 125.707 9.211 186.31 7.836 251.2zm0 0" fill="#54a0ff"/><path d="M111.363 78.875c42.344-40.832 90.282-63.469 140.23-70.852-60.94 1.106-120.07 23.622-171.019 72.75l15.203 15.2a253.327 253.327 0 0115.586-17.098zm0 0" fill="#11aa7b"/><path d="M42.36 255.797c-2.547 0-4.575-2.102-4.52-4.645 1.222-57.691 22.039-112.02 57.937-155.18L80.574 80.774C35.644 125.707 9.214 186.31 7.84 251.2c-.055 2.52 1.953 4.598 4.469 4.598h58.675zm0 0" fill="#338def"/><path d="M432.098 80.773l-47.801 47.797h.004c31.738 31.746 51.61 75.18 52.926 122.907.066 2.41 2.05 4.32 4.46 4.32h58.676c2.516 0 4.528-2.078 4.473-4.594-1.352-63.297-26.746-124.45-72.738-170.43zM329.387 264.48l36.304-117.464c1.504-4.864-3.054-9.418-7.918-7.918L240.31 175.402c-51.243 15.836-67.258 80.485-29.332 118.41 37.925 37.926 102.574 21.91 118.41-29.332zm0 0" fill="#ff6b6b"/><path d="M240.98 293.813c-37.925-37.926-21.91-102.575 29.333-118.41l95.613-29.551c.515-4.391-3.684-8.133-8.153-6.754L240.31 175.402c-51.243 15.836-67.258 80.485-29.332 118.41 18.324 18.325 42.89 24.055 65.171 19.305-12.68-2.734-24.906-9.039-35.168-19.305zm0 0" fill="#ee5253"/><path d="M282.04 222.746c-11.938-11.934-31.286-11.934-43.224 0-11.933 11.934-11.933 31.285 0 43.219 11.938 11.937 31.286 11.937 43.223 0 11.934-11.934 11.934-31.285 0-43.219zm0 0" fill="#ee5253"/><path d="M275.71 217.89c-11.687-6.757-26.89-5.14-36.89 4.86-11.933 11.934-11.933 31.281 0 43.219 10 10 25.203 11.613 36.89 4.86-20.433-11.817-20.265-41.224 0-52.938zm0 0" fill="#d83941"/><path d="M11.973 262.828h172.765c7.227 27.8 29.328 49.238 55.934 56.3a7.503 7.503 0 009.172-5.327 7.495 7.495 0 00-5.324-9.172c-10.829-2.875-20.442-8.457-28.57-16.586-33.259-33.254-20.145-89.512 23.644-105.074 2.062-.735-5.852 1.742 117.945-36.516-2.3 7.43-34.332 111.078-35.652 115.344-6.711 21.719-23.922 37.848-46.035 43.152a7.5 7.5 0 103.496 14.586c27.32-6.55 48.582-26.476 56.875-53.305l1.05-3.402h162.754c6.711 0 12.114-5.504 11.973-12.254C509.031 111.582 395.586 0 256 0 119.293 0 3.004 108.836.004 250.574c-.145 6.723 5.238 12.254 11.969 12.254zm484.941-15h-52.633c-1.969-45.543-20.168-87.566-49.816-119.621l37.215-37.215c40.21 42.735 63.246 98.04 65.234 156.836zM263.5 15.113c59.066 1.797 114.504 24.762 157.566 65.278l-37.207 37.207C350.836 87.047 308.465 69.48 263.5 67.742zm-7.527 67.485h.047c93.43 0 168.945 73.398 173.238 165.23h-87.352l30.617-99.062c1.52-4.918.2-10.23-3.437-13.868a13.796 13.796 0 00-13.863-3.433c-127.989 39.555-122.348 37.347-131.032 41.902-28.293 14.84-43.562 44.613-41.816 74.461H82.742c4.403-92.687 80.805-165.23 173.23-165.23zM248.5 15.109v52.637c-45.98 1.785-87.992 19.918-120.36 49.852-25.89-25.891-26.152-26.149-37.128-37.125C136.535 38.78 189.453 16.82 248.5 15.109zM80.32 90.992l37.215 37.215c-29.726 32.18-47.84 74.137-49.816 119.621H15.082c1.98-58.777 25.016-114.078 65.238-156.836zm0 0"/><path d="M291.29 265.691a7.5 7.5 0 00-1.845-10.445A7.5 7.5 0 00279 257.09c-8.29 11.847-25.121 13.195-35.21 3.105-8.993-8.992-8.993-23.62 0-32.613 10.093-10.094 26.917-8.734 35.21 3.11a7.503 7.503 0 0010.445 1.84 7.5 7.5 0 001.844-10.446c-13.668-19.504-41.43-21.79-58.105-5.11-14.84 14.84-14.84 38.985 0 53.825 16.71 16.715 44.48 14.347 58.105-5.11zm0 0"/></svg>